<?xml version="1.0" encoding="UTF-8" standalone="no"?><svg version="1.1" id="Layer_1" x="0px" y="0px" width="480" viewBox="0 0 480 570" enable-background="new 0 0 1920 1920" xml:space="preserve" sodipodi:docname="Default_Create_an_icon_for_a_mobile_app_named_TranquiAndes_emp_3.svg" height="570" inkscape:export-filename="samay.png" inkscape:export-xdpi="96" inkscape:export-ydpi="96" inkscape:version="1.3.2 (091e20e, 2023-11-25, custom)" xmlns:inkscape="http://www.inkscape.org/namespaces/inkscape" xmlns:sodipodi="http://sodipodi.sourceforge.net/DTD/sodipodi-0.dtd" xmlns:xlink="http://www.w3.org/1999/xlink" xmlns="http://www.w3.org/2000/svg" xmlns:svg="http://www.w3.org/2000/svg"><defs id="defs998"><linearGradient id="linearGradient1012" inkscape:collect="always"><stop style="stop-color:#59a6aa;stop-opacity:1" offset="0" id="stop1012"/><stop style="stop-color:#2f6774;stop-opacity:1" offset="1" id="stop1013"/></linearGradient><linearGradient id="linearGradient1010" inkscape:collect="always"><stop style="stop-color:#fdbe44;stop-opacity:1" offset="0" id="stop1010"/><stop style="stop-color:#eb604a;stop-opacity:1" offset="1" id="stop1011"/></linearGradient><inkscape:path-effect effect="fillet_chamfer" id="path-effect1005" is_visible="true" lpeversion="1" nodesatellites_param="F,0,0,1,0,46.861972,0,1 @ F,0,0,1,0,62.410979,0,1 @ F,0,0,1,0,62.480492,0,1 @ F,0,0,1,0,46.744664,0,1 @ F,0,0,1,0,62.316098,0,1 @ F,0,0,1,0,62.388987,0,1" radius="0" unit="px" method="auto" mode="F" chamfer_steps="1" flexible="false" use_knot_distance="true" apply_no_radius="true" apply_with_radius="true" only_selected="false" hide_knots="false"/><linearGradient inkscape:collect="always" xlink:href="#linearGradient1010" id="linearGradient1011" x1="1217.8463" y1="1557.0261" x2="1203.7551" y2="482.22385" gradientUnits="userSpaceOnUse"/><linearGradient inkscape:collect="always" xlink:href="#linearGradient1012" id="linearGradient1013" x1="751.16211" y1="1563.625" x2="746.60156" y2="483.625" gradientUnits="userSpaceOnUse"/></defs><sodipodi:namedview id="namedview998" pagecolor="#ffffff" bordercolor="#000000" borderopacity="0.25" inkscape:showpageshadow="2" inkscape:pageopacity="0.0" inkscape:pagecheckerboard="0" inkscape:deskcolor="#d1d1d1" showguides="true" inkscape:zoom="0.70710678" inkscape:cx="92.630988" inkscape:cy="171.82695" inkscape:window-width="1920" inkscape:window-height="1009" inkscape:window-x="-8" inkscape:window-y="-8" inkscape:window-maximized="1" inkscape:current-layer="Layer_1"><sodipodi:guide position="1369.2422,-146.6719" orientation="0,-1" id="guide1000" inkscape:locked="false"/><sodipodi:guide position="1430.2656,-661.55469" orientation="0,-1" id="guide1001" inkscape:locked="false"/><sodipodi:guide position="580.30078,-146.8906" orientation="1,0" id="guide1002" inkscape:locked="false"/><sodipodi:guide position="1368.9808,-145.4274" orientation="1,0" id="guide1003" inkscape:locked="false"/><sodipodi:guide position="1544.3212,101.7948" orientation="1,0" id="guide1005" inkscape:locked="false"/><sodipodi:guide position="519.22656,-257.5352" orientation="0,-1" id="guide1006" inkscape:locked="false"/><sodipodi:guide position="974.59766,77.2812" orientation="1,0" id="guide1007" inkscape:locked="false"/></sodipodi:namedview><g id="g1013" style="display:inline;opacity:1" transform="matrix(0.52697035,0,0,0.52697035,-273.58304,-252.31214)"><path d="m 974.60156,482.58203 v 619.47267 l 78.48634,69.0293 158.1601,-137.752 0.045,-0.039 128.2422,110.707 90.4921,67.4707 -0.043,-393.93554 c -0.01,-45.7361 -23.2575,-87.99544 -60.9981,-110.85938 l -348.701,-211.24414 c -13.8917,-8.41139 -29.64599,-12.84266 -45.68364,-12.84961 z" style="opacity:1;fill:url(#linearGradient1011);stroke-width:0;stroke:none;stroke-dasharray:none" id="path1277"/><path d="m 974.60156,482.58203 c -16.08237,-0.0132 -31.88404,4.42291 -45.8125,12.86133 L 580.29687,706.67383 C 542.4613,729.60742 519.1568,771.98452 519.16211,817.8418 l 0.0449,398.125 L 595,1151 749,994 749.002,994.002 845,1094 l 69.81055,65.8066 h 0.002 l 58.7793,-58.6386 h 0.002 l 1.00781,0.8867 z" style="opacity:1;fill:url(#linearGradient1013);stroke-width:0;stroke:none;stroke-dasharray:none" id="path1276"/><path d="m 1211.1621,1074.8828 0.086,-41.5508 -158.1601,137.752 25.123,22.0976 65.8887,-52.6191 z" style="display:inline;opacity:1;fill:#b66839;stroke-width:0;stroke:none;stroke-dasharray:none" id="path1254"/><path d="m 1427.8125,1245.7754 a 122.11685,128.16896 2.5169393e-7 0 0 2.2168,-24.2246 v -10.0801 L 1339.5372,1144 1211.295,1033.293 l -0.045,0.039 -0.086,41.5508 1.5254,-1.4941 106.7734,93.3379 z" style="display:inline;opacity:1;fill:#f39549;stroke-width:0;stroke:none;stroke-dasharray:none" id="path1253"/><path d="m 1215.2871,1192.7344 -4.375,3.5254 -67.4258,54.33 0.2969,0.2618 16.0508,14.1172 51.0742,-66.1114 4.2539,-5.5078 0.125,-0.1621 v -0.068 l 0.252,-0.207 -0.024,-0.023 -0.2285,0.1836 z" style="display:inline;opacity:1;fill:#0e3347;stroke-width:0;stroke:none;stroke-dasharray:none" id="path1273"/><path d="m 1215.2852,1193.457 -0.1231,0.3028 -4.2656,10.5156 -31.5781,77.8301 31.3593,27.582 4.3575,3.834 0.1269,-60.8887 z" style="display:inline;opacity:1;fill:#4894a2;stroke-width:0;stroke:none;stroke-dasharray:none" id="path1272"/><path d="m 973.59375,1101.168 0.46094,215.0976 0.002,0.6973 0.54492,0.4863 v -0.6972 l 170.26369,151.6484 138.3321,-83.8457 7.4609,-4.5234 -9.5879,-8.4317 -8.7148,-7.6641 -7.2598,-6.3867 -49.9336,-43.916 -0.1269,-0.1113 v 0.166 l -4.3575,-3.8223 -31.4355,-27.5722 -19.5469,-17.1446 -16.1152,-14.1328 -0.2969,-0.2617 0.2031,-0.1641 -65.2754,-57.4082 -25.1231,-22.0976 -78.48629,-69.0293 z" style="display:inline;opacity:1;fill:#66b0ab;stroke-width:0;stroke:none;stroke-dasharray:none" id="path1274"/><path d="m 1215.5684,1192.8887 -0.029,0.023 -0.252,0.207 v 0.068 0.2695 l -0.1231,59.1758 v 61 l 49.9336,43.916 7.2598,6.3867 8.7148,7.6641 9.5879,8.4317 25.584,-15.5059 13.6973,-8.3027 30.1484,-18.2735 -10.7813,-10.8203 -129.2382,-129.7226 z" style="display:inline;opacity:1;fill:#66b0ab;stroke-width:0;stroke:none;stroke-dasharray:none" id="path1270"/><path d="m 1212.6875,1073.3887 -1.5254,1.4941 -0.25,121.377 4.375,-3.5254 v 0.3379 l 0.2285,-0.1836 0.024,0.023 0.029,-0.023 4.5,4.5176 129.2382,129.7226 10.7813,10.8203 8.8965,-5.3926 c 30.6744,-18.6016 52.1404,-50.2676 58.8281,-86.7812 l -108.3516,-79.0488 z" style="display:inline;opacity:1;fill:#f9a63e;stroke-width:0;stroke:none;stroke-dasharray:none" id="path1275"/><path d="m 1211.1621,1074.8828 -67.0625,65.6797 -65.8887,52.6191 65.2754,57.4082 67.4258,-54.33 z" style="display:inline;opacity:1;fill:#c4713a;stroke-width:0;stroke:none;stroke-dasharray:none" id="path1258"/><path d="M 749.00195,994.12109 833,1118 l 63.20117,60.3711 18.60938,-18.5645 L 845,1094 749.00195,994.00195 Z" style="display:inline;opacity:1;fill:#fcb049;stroke-width:0;stroke:none;stroke-dasharray:none" id="path1261"/><path d="m 749.00195,994.12109 v -0.11914 L 749,994 l -154,157 -75.79297,64.9668 v 5.6699 a 122.15989,128.21414 2.5169393e-7 0 0 14.24609,58.7149 L 639,1163 748.95898,994.05859 Z" style="display:inline;opacity:1;fill:#b66839;stroke-width:0;stroke:none;stroke-dasharray:none" id="path1263"/><path d="m 967.69727,1312.7109 -0.99219,0.8789 -0.0566,0.051 -94.06836,83.3301 -40.87305,36.209 -0.69922,0.6191 h -0.004 l -8.88868,10.1465 -20.22851,17.7285 -3.52735,3.0918 47.7461,28.9238 29.10351,17.6309 1.00391,0.6093 52.57813,31.8516 c 11.47154,6.6452 24.16689,10.6339 37.23046,11.6973 0.73188,0.1108 1.46501,0.2124 2.19922,0.3047 z" style="display:inline;opacity:1;fill:#0e3347;stroke-width:0;stroke:none;stroke-dasharray:none" id="path1268"/><path d="m 750.27539,1244.8652 v 0 l 45.35938,33.8282 100.5664,-100.3262 L 833,1118 749.00195,994.12109 Z" style="display:inline;opacity:1;fill:#fdbe44;stroke-width:0;stroke:none;stroke-dasharray:none" id="path1259"/><path d="m 585.57617,1335.8633 118.70313,-125.2969 0.006,-0.01 v 0.01 l 45.99023,34.2988 -1.27344,-250.74411 -0.043,-0.0625 L 639,1163 533.45312,1280.3516 a 122.15989,128.21414 2.5169393e-7 0 0 46.84571,52.3144 z" style="display:inline;opacity:1;fill:#c4713a;stroke-width:0;stroke:none;stroke-dasharray:none" id="path1262"/><path d="m 973.5918,1101.168 -58.7793,58.6386 h -0.002 v 0 l -18.60938,18.5625 -100.5664,100.3262 -44.95899,44.8515 -46.39062,46.2793 -23.66797,23.6114 23.66797,14.3378 38.41796,23.2735 8.54688,5.1777 47.10937,28.5391 3.52735,-3.0918 20.22851,-17.7285 8.88282,-10.1407 0.006,-0.01 h 0.004 l 0.54688,-0.625 0.15234,0.01 40.87305,-36.209 94.06836,-83.3301 0.0566,-0.051 0.99219,-0.8789 L 968.5,1312 l 5.55664,4.9629 -0.002,-0.6973 -0.46094,-215.0976 z" style="display:inline;opacity:1;fill:#2f6774;fill-opacity:1;stroke-width:0;stroke:none;stroke-dasharray:none" id="path1267"/><path d="m 585.57617,1335.8633 12.21875,7.4023 106.48438,-132.6992 z" style="display:inline;opacity:1;fill:#0e3347;stroke-width:0;stroke:none;stroke-dasharray:none" id="path1264"/><path d="m 704.28516,1210.5703 v 159.2578 l 46.39062,-46.2793 44.95899,-44.8515 -45.35938,-33.8282 z" style="display:inline;opacity:1;fill:#4e9da7;stroke-width:0;stroke:none;stroke-dasharray:none" id="path1266"/><path d="m 704.28516,1369.8281 v -159.2578 h -0.006 l -106.48243,132.6953 82.82032,50.1739 z" style="display:inline;opacity:1;fill:#2a616f;stroke-width:0;stroke:none;stroke-dasharray:none" id="path1265"/><path d="m 968.5,1312 -0.80273,0.7109 0.52343,243.0743 c 2.11645,0.3725 4.24473,0.6669 6.38086,0.8828 15.18675,-0.1048 30.11124,-4.1658 43.43364,-11.8184 0.8317,-0.3466 1.6587,-0.7061 2.4804,-1.0781 l 124.3496,-75.3711 -170.26364,-151.6484 v 0.6972 z" style="display:inline;opacity:1;fill:#0c7579;stroke-width:0;stroke:none;stroke-dasharray:none" id="path1269"/><path d="m 1215.2871,1193.1875 -0.125,0.1621 -4.2539,5.5078 -51.0742,66.1114 19.4844,17.1367 31.5781,-77.8301 4.2656,-10.5156 0.1231,-0.3028 z" style="display:inline;opacity:1;fill:#2a616f;stroke-width:0;stroke:none;stroke-dasharray:none" id="path1271"/><path d="m 699.60547,755.93164 c -7.03643,-0.51891 -15.22867,0.31269 -24.56445,3.44922 -28.04426,14.31733 -29.74219,38.66992 -29.74219,38.66992 0,0 -12.03028,-6.49424 -33.58008,9.00391 -14.31733,13.13651 -14.24219,24.06054 -14.24219,24.06054 0,0 -6.08337,-1.43958 -16.7539,4.20508 -5.60886,3.54244 -7.52735,7.60156 -7.52735,7.60156 l 238.82031,-0.29492 c 10e-6,0 -0.005,-10.18979 -6.43359,-17.44531 -9.44649,-10.4797 -25.1543,-5.875 -25.1543,-5.875 0,0 -2.39791,-7.24692 -13.875,-16.82617 -14.16972,-12.10331 -22.13867,-5.60938 -22.13867,-5.60938 0,0 -1.08644,-11.18973 -12.99023,-25.68359 0,0 -10.70906,-13.69913 -31.81836,-15.25586 z" style="display:inline;opacity:1;fill:#eaebed;stroke-width:0;stroke:none;stroke-dasharray:none" id="path1257"/><path d="m 1285.9492,847.08008 a 76.816322,76.816322 0 0 0 -76.8164,76.8164 76.816322,76.816322 0 0 0 76.8164,76.81642 76.816322,76.816322 0 0 0 76.8145,-76.81642 76.816322,76.816322 0 0 0 -76.8145,-76.8164 z" style="display:inline;opacity:1;fill:#ecb473;fill-opacity:1;stroke-width:0;stroke:none;stroke-dasharray:none" id="path1256"/></g></svg>